<?xml version="1.0" encoding="UTF-8" standalone="no"?>
<!DOCTYPE svg PUBLIC "-//W3C//DTD SVG 1.1//EN" "http://www.w3.org/Graphics/SVG/1.1/DTD/svg11.dtd">
<svg width="100%" height="100%" viewBox="0 0 1000 1000" version="1.1" xmlns="http://www.w3.org/2000/svg" xmlns:xlink="http://www.w3.org/1999/xlink" xml:space="preserve" xmlns:serif="http://www.serif.com/" style="fill-rule:evenodd;clip-rule:evenodd;stroke-linecap:round;stroke-linejoin:round;stroke-miterlimit:1.5;">
    <g transform="matrix(1.033195,0,0,1.04878,0.93361,0.902439)">
        <ellipse cx="484" cy="473.5" rx="482" ry="471.5" style="fill:rgb(38,39,44);"/>
    </g>
    <g transform="matrix(1.121652,0,0,1.121652,-62.89417,-105.284949)">
        <g transform="matrix(1,0,0,0.981554,-8.566168,-22.899531)">
            <path d="M639,299L639,525.085C639,597.339 581.421,656 510.5,656C439.579,656 382,597.339 382,525.085L382,299C382,226.746 439.579,168.085 510.5,168.085C581.421,168.085 639,226.746 639,299Z" style="fill:url(#_Radial1);stroke:rgb(246,246,246);stroke-width:35.99px;"/>
        </g>
        <path d="M244,470C244,470 232.396,778.66 505.5,768C747.947,758.537 762,469 762,469" style="fill:none;stroke:rgb(246,246,246);stroke-width:35.66px;"/>
        <g transform="matrix(0.501858,0,0,0.76957,244.039558,180.887729)">
            <path d="M213,923L502.964,918L502.964,788L524,785L526,917L821,919" style="fill:url(#_Radial2);stroke:rgb(246,246,246);stroke-width:54.89px;"/>
        </g>
        <g transform="matrix(0.737267,0.001428,0.001428,0.999992,98.354135,-31.012006)">
            <path d="M350.935,920.622L744.55,918.482" style="fill:none;stroke:rgb(246,246,246);stroke-width:40.53px;"/>
        </g>
    </g>
    <defs>
        <radialGradient id="_Radial1" cx="0" cy="0" r="1" gradientUnits="userSpaceOnUse" gradientTransform="matrix(-128.5,243.957494,-128.5,-243.957494,448.569002,290.322737)"><stop offset="0" style="stop-color:rgb(218,218,218);stop-opacity:0.49"/><stop offset="0.18" style="stop-color:rgb(234,234,234);stop-opacity:0.36"/><stop offset="0.39" style="stop-color:rgb(249,249,249);stop-opacity:0.23"/><stop offset="1" style="stop-color:white;stop-opacity:0.18"/></radialGradient>
        <radialGradient id="_Radial2" cx="0" cy="0" r="1" gradientUnits="userSpaceOnUse" gradientTransform="matrix(-144.982203,2.5,-144.982203,-2.5,288.107553,919.252654)"><stop offset="0" style="stop-color:rgb(218,218,218);stop-opacity:0.49"/><stop offset="0.18" style="stop-color:rgb(234,234,234);stop-opacity:0.36"/><stop offset="0.39" style="stop-color:rgb(249,249,249);stop-opacity:0.23"/><stop offset="1" style="stop-color:white;stop-opacity:0.18"/></radialGradient>
    </defs>
</svg>
